<?xml version="1.0" encoding="UTF-8"?>
<svg width="800" height="800" version="1.1" viewBox="0 0 800 800" xml:space="preserve" xmlns="http://www.w3.org/2000/svg"><g transform="matrix(1.3333 0 0 -1.3333 -823.47 949.77)" fill="#231f20" fill-rule="evenodd"><g transform="translate(19.54 3.0434)"><path transform="matrix(.75002 0 0 -.75002 0 709.8)" d="m1167.4 82.279-13.768 3.4629 32.332 98.936-176.69 586.64-60.527-1.4024-15.309-186.62c-27.257 0.61732-46.232-51.482-46.232-51.482 10.95 9.9091 36.615 20.701 45.486 22.189l-0.25-15.453c20.395 0.072 45.951-0.83594 45.951-0.83594 6.5038-16.121-23.086-59.568-32.43-74.537l-12.525-366.68-109.97-1.3926 37.576 161.02c-9.9758 16.948-41.08 52.231-35.408 66.291 0 0 18.685-6.7299 35.408-6.7539l0.22851 11.307 49.664-1.709c-13.629 12.338-38.439 14.076-50.121 14.268l-22.039 457.08 94.662-1.3926h99.902l366.76 8e-3 -197.7-610.64 32.293-98.84-13.758-3.4629-25.947 79.404-0.5117-1.5723h-1.1191l-0.2539 0.84961-25.707-78.682zm-309.7 16.75 24.686 60.398 7.25-22.578 9.9043 62.379 12.322-18.736-4.123 54.719 18.361-26.762-8.707 56.537-32.611-33.336 5.6367-19.625-32.725-33.57 17.014-2.7051-21.793-22.922 4.7852-53.799zm49.793 252.75-5.957 59.422 18.367-17.289-21.418 56.701 21.418-12.447-31.328 45.893 31.328-17.551-36.734 46.088-15.318-38.482 15.318-15.211-15.318-38.717 18.025 2.7695-9.9219-26.271 31.539-44.904zm286.85 155.48h0.4512l83.23 257.06h-161.1l77.418-257.06z" stroke-width="1.3333"/><path d="m1130.5 704.34c-1.61 0.701-3.22 1.327-4.84 1.917 7.8-24.768 7.04-52.353-4.2-78.01-13.73-31.327-40.15-53.143-70.58-62.093 4.65-3.406 9.73-6.374 15.24-8.785 40.58-17.779 87.89 0.708 105.67 41.291s-0.71 87.901-41.29 105.68z"/></g></g></svg>
