<?xml version="1.0" encoding="UTF-8"?>
<svg width="2210.6" height="946.37" version="1.1" viewBox="0 0 2210.6 946.37" xml:space="preserve" xmlns="http://www.w3.org/2000/svg"><g transform="matrix(1.3333 0 0 -1.3333 0 946.37)" fill="#231f20" fill-rule="evenodd"><path d="m113.19 345.64h-99.416v47.484h158.77v-44.143l-104.24-182.89h111.28v-47.484h-171.38v41.549z"/><path transform="matrix(.75002 0 0 -.75002 0 709.8)" d="m408.6 504.33c-87.051 0-144.42 69.742-144.42 147.4 0 80.123 61.327 145.41 144.92 145.41 64.788 0 116.72-45.998 132.55-95.459h-69.24c-12.366 22.751-34.126 35.119-63.307 35.119-46.987 0-72.709-38.583-75.676-56.391l213.17 0.00586c1.9813-8.9024 3.957-20.278 3.957-33.137 0-69.244-51.93-142.94-141.94-142.94zm0.49609 60.342c35.111 0 66.764 18.793 74.186 62.814h-151.84c12.365-50.948 50.946-62.814 77.654-62.814z" stroke-width="1.3333"/><path d="m444.09 393.12h49.335v-274.52h-49.335z"/><path d="m544.99 280.72h-24.112v43.775h24.112v68.628h49.335v-68.628h29.677v-43.775h-29.677v-162.12h-49.335z"/><path transform="matrix(.75002 0 0 -.75002 0 709.8)" d="m1522.4 504.31c-69.732 0-139.97 57.882-139.97 143.94 0 91.992 73.704 148.88 140.46 148.88 55.892 0 81.119-31.655 90.025-44.021l0.9863 0.99219c-3.4666 59.846-46.986 85.564-84.078 85.564-10.386 0-42.038 0.00113-67.758-30.662h-75.186c23.746 61.332 81.611 91.01 138 91.01 51.932 0 149.85-30.176 149.85-162.24v-224.06l-63.799-0.0039v33.635h-0.9863c-7.4132-10.885-31.16-43.035-87.545-43.035zm-3.5332 58.309c43.919 0 72.318 44.771 72.318 84.064 0 55.213-35.052 89.041-70.545 89.041-35.946 0-73.65-32.332-73.65-88.541 0-52.229 36.384-84.564 71.877-84.564z" stroke-width="1.3333"/><path transform="matrix(.75002 0 0 -.75002 0 709.8)" d="m1852.9 504.33c-87.051 0-144.44 69.742-144.44 147.4 0 80.123 61.331 145.41 144.92 145.41 64.798 0 116.73-45.998 132.56-95.459h-69.252c-12.36 22.751-34.119 35.119-63.305 35.119-46.986 0-72.704-38.583-75.664-56.391l213.17 0.00586c1.9733-8.9024 3.9453-20.278 3.9453-33.137 0-69.244-51.932-142.94-141.93-142.94zm0.4805 60.342c35.119 0 66.773 18.793 74.199 62.814h-151.84c12.36-50.948 50.933-62.814 77.639-62.814z" stroke-width="1.3333"/><path d="m1530.6 324.5h45.26v-18.179h0.74c9.27 13.359 18.55 25.228 44.14 25.228h4.08v-47.855c-44.88-1.854-44.88-37.097-44.88-49.341v-115.74h-49.34z"/><path transform="matrix(.75002 0 0 -.75002 0 709.8)" d="m1167.4 82.279-13.768 3.4629 32.332 98.936-176.69 586.64-60.527-1.4024-15.309-186.62c-27.257 0.61732-46.232-51.482-46.232-51.482 10.95 9.9091 36.615 20.701 45.486 22.189l-0.25-15.453c20.395 0.07197 45.951-0.83594 45.951-0.83594 6.5038-16.121-23.086-59.568-32.43-74.537l-12.525-366.68-109.97-1.3926 37.576 161.02c-9.9758 16.948-41.08 52.231-35.408 66.291 0 0 18.685-6.7299 35.408-6.7539l0.22851 11.307 49.664-1.709c-13.629 12.338-38.439 14.076-50.121 14.268l-22.039 457.08 94.662-1.3926h99.902l366.76 0.00781-197.7-610.64 32.293-98.84-13.758-3.4629-25.947 79.404-0.5117-1.5723h-1.1191l-0.2539 0.84961-25.707-78.682zm-309.7 16.75 24.686 60.398 7.25-22.578 9.9043 62.379 12.322-18.736-4.123 54.719 18.361-26.762-8.707 56.537-32.611-33.336 5.6367-19.625-32.725-33.57 17.014-2.7051-21.793-22.922 4.7852-53.799zm49.793 252.75-5.957 59.422 18.367-17.289-21.418 56.701 21.418-12.447-31.328 45.893 31.328-17.551-36.734 46.088-15.318-38.482 15.318-15.211-15.318-38.717 18.025 2.7695-9.9219-26.271 31.539-44.904zm286.85 155.48h0.4512l83.23 257.06h-161.1l77.418-257.06z" stroke-width="1.3333"/><path d="m1293.2 24.617h11.23v-19.129h-11.23z"/><path d="m1411.9 29.928c-5.32-10.323-16.4-26.415-41.29-26.415-25.96 0-44.63 20.19-44.63 43.417 0 23.985 19.88 43.72 44.63 43.72 14.57 0 33.24-7.2895 41.29-27.173h-11.69c-6.68 12.597-18.82 17.609-29.3 17.609-16.24 0-34.3-12.146-34.3-33.852 0-18.67 14.42-34.156 34.3-34.156 17.31 0 25.96 10.474 29.3 16.85z"/><path transform="matrix(.75002 0 0 -.75002 0 709.8)" d="m1956.8 825.5c-29.146 0-57.68 23.886-57.68 58.898 0 29.958 25.294 57.281 57.68 57.281 33.186 0 58.078-27.935 58.078-58.09 0-30.361-25.292-58.088-58.078-58.088v-0.00195zm0.2656 12.752c19.026 0 43.719 15.585 43.719 44.729 0 28.947-22.266 45.949-43.719 45.949v-0.00195c-22.866 0-43.719-19.024-43.719-44.73 0-29.346 23.479-45.945 43.719-45.945z" stroke-width="1.3333"/><path d="m1538 78.963c4.7 7.4378 12.9 11.688 22.62 11.688 11.99 0 22.16-5.7696 27.93-15.94 6.52 10.478 16.08 15.94 27.92 15.94 19.59 0 33.25-13.662 33.25-35.824v-49.338h-10.63v48.125c0 17.757-8.5 27.473-22.62 27.473-14.11 0-22.61-9.716-22.61-27.473v-48.125h-10.63v48.125c0 17.757-8.5 27.473-22.61 27.473-14.12 0-22.62-9.716-22.62-27.473v-48.125h-10.63v83.036h10.63z"/><path d="m23.365 495.84c5.1362 8.12 14.088 12.76 24.692 12.76 13.094 0 24.199-6.295 30.498-17.4 7.1267 11.436 17.565 17.4 30.494 17.4 21.38 0 36.292-14.913 36.292-39.113v-53.864h-11.6v52.54c0 19.39-9.28 29.998-24.692 29.998s-24.695-10.608-24.695-29.998v-52.54h-11.601v52.54c0 19.39-9.2828 29.998-24.695 29.998-15.412 0-24.692-10.608-24.692-29.998v-52.54h-11.601v90.659h11.601z"/><path transform="matrix(.75002 0 0 -.75002 0 709.8)" d="m279.55 268.26c-35.132 0.66665-62.756 29.39-62.756 63.643 0 35.798 29.168 63.197 62.977 63.197 27.839 0 51.043-18.338 59.441-42.426h-16.355c-5.5239 15.026-21.211 28.067-43.307 28.504-23.645 0-45.738-20.104-46.848-43.75h110.04c0-1.5506 0.21875-2.8746 0.21875-4.4199 0-10.606-2.4268-22.318-9.5-33.812-8.6144-15.026-27.399-30.714-53.914-30.936zm0.21289 13.924c19.225 0 42.422 12.816 47.283 41.324h-94.354c4.4212-28.509 28.067-41.324 47.07-41.324z" stroke-width="1.3333"/><path d="m274.81 506.28h11.601v-90.659h-11.601z"/><path d="m274.81 538.26h11.601v-20.885h-11.601z"/><path d="m309.34 506.28h11.601v-11.602h0.331c3.481 5.468 12.432 13.92 27.845 13.92 11.104 0 20.383-2.815 28.669-11.105 6.795-6.627 11.273-17.069 11.273-31.986v-49.886h-11.605v49.886c0 11.767-3.646 20.053-8.616 24.863-6.299 6.13-14.585 7.789-19.721 7.789s-13.426-1.659-19.721-7.789c-4.809-4.64-8.455-12.765-8.455-24.031v-50.718h-11.601z"/><path d="m1130.5 704.34c-1.61 0.701-3.22 1.327-4.84 1.917 7.8-24.768 7.04-52.353-4.2-78.01-13.73-31.327-40.15-53.143-70.58-62.093 4.65-3.406 9.73-6.374 15.24-8.785 40.58-17.779 87.89 0.708 105.67 41.291s-0.71 87.901-41.29 105.68z"/></g></svg>
